<?xml version="1.0" standalone="no"?>
<!DOCTYPE svg PUBLIC "-//W3C//DTD SVG 20010904//EN"
 "http://www.w3.org/TR/2001/REC-SVG-20010904/DTD/svg10.dtd">
<svg version="1.0" xmlns="http://www.w3.org/2000/svg"
 width="512.000000pt" height="512.000000pt" viewBox="0 0 512.000000 512.000000"
 preserveAspectRatio="xMidYMid meet">

<g transform="translate(0.000000,512.000000) scale(0.100000,-0.100000)"
fill="#000000" stroke="none">
<path d="M2481 5105 c-30 -9 -68 -24 -85 -35 -17 -10 -554 -542 -1192 -1182
-1114 -1115 -1163 -1165 -1180 -1218 -23 -70 -23 -160 0 -230 17 -52 55 -92
812 -850 l794 -795 288 288 289 289 -14 41 c-23 66 -13 198 19 269 32 70 103
147 163 179 l45 24 0 703 0 702 -23 9 c-42 16 -123 88 -154 137 -49 78 -66
144 -61 238 5 101 37 175 107 249 225 237 615 114 672 -212 25 -141 -45 -298
-171 -386 l-40 -28 0 -691 0 -691 260 260 260 260 -17 69 c-14 59 -15 79 -5
138 23 134 104 243 221 301 61 30 74 32 166 32 92 0 106 -3 167 -32 85 -40
151 -106 191 -191 29 -61 32 -75 32 -167 0 -88 -3 -107 -27 -158 -77 -164
-255 -259 -425 -228 l-67 12 -279 -279 -280 -280 13 -66 c31 -165 -60 -340
-217 -418 -53 -26 -80 -32 -147 -36 -44 -2 -97 0 -117 6 l-36 10 -292 -292
-291 -291 262 -261 c242 -240 267 -263 318 -279 70 -23 160 -24 230 -1 53 18
98 61 1231 1195 1134 1133 1177 1178 1195 1231 22 70 22 160 0 230 -18 53 -61
98 -1190 1226 -1081 1082 -1175 1173 -1221 1188 -74 24 -143 28 -204 11z"/>
</g>
</svg>
